<svg xmlns="http://www.w3.org/2000/svg" version="1.1" xmlns:xlink="http://www.w3.org/1999/xlink" width="200" height="200"><svg xmlns="http://www.w3.org/2000/svg" version="1.1" xmlns:xlink="http://www.w3.org/1999/xlink" viewBox="0 0 200 200"><rect width="200" height="200" fill="url('#gradient')"></rect><defs><linearGradient id="SvgjsLinearGradient1006" gradientTransform="rotate(45 0.5 0.5)"><stop offset="0%" stop-color="#304b63"></stop><stop offset="100%" stop-color="#261b1d"></stop></linearGradient></defs><g><g fill="#87ced8" transform="matrix(5.026452140714481,0,0,5.026452140714481,11.411715627309889,125.53250156763565)" stroke="#2b3c33" stroke-width="0.2"><path d="M6.91-14.22L2.05 1.22L-0.28 1.22L4.57-14.22L6.91-14.22ZM8.49-13.19L11.78-13.19L11.78-10.57L13.52-10.57L13.52-8.28L11.78-8.28L11.78-3.45Q11.78-2.85 11.99-2.62Q12.21-2.38 12.84-2.38L12.84-2.38Q13.33-2.38 13.66-2.44L13.66-2.44L13.66-0.09Q12.77 0.20 11.81 0.20L11.81 0.20Q10.11 0.20 9.30-0.61Q8.49-1.41 8.49-3.04L8.49-3.04L8.49-8.28L7.14-8.28L7.14-10.57L8.49-10.57L8.49-13.19ZM24.62-5.36L24.62-5.21Q24.62-2.74 23.51-1.27Q22.40 0.20 20.52 0.20L20.52 0.20Q19.06 0.20 18.13-0.87L18.13-0.87L18.13 4.06L14.83 4.06L14.83-10.57L17.91-10.57L18.01-9.59Q18.96-10.76 20.50-10.76L20.50-10.76Q22.45-10.76 23.54-9.32Q24.62-7.88 24.62-5.36L24.62-5.36ZM21.33-5.06L21.33-5.41Q21.33-8.22 19.69-8.22L19.69-8.22Q18.52-8.22 18.13-7.38L18.13-7.38L18.13-3.22Q18.55-2.34 19.71-2.34L19.71-2.34Q21.28-2.34 21.33-5.06L21.33-5.06ZM26.01-10.57L29.09-10.57L29.20-9.33Q30.29-10.76 32.22-10.76L32.22-10.76Q33.87-10.76 34.68-9.78Q35.50-8.79 35.53-6.81L35.53-6.81L35.53 0L32.23 0L32.23-6.67Q32.23-7.47 31.90-7.85Q31.58-8.22 30.73-8.22L30.73-8.22Q29.77-8.22 29.30-7.46L29.30-7.46L29.30 0L26.01 0L26.01-10.57Z"></path></g></g></svg><style>@media (prefers-color-scheme: light) { :root { filter: none; } }
@media (prefers-color-scheme: dark) { :root { filter: none; } }
</style></svg>